<svg xmlns="http://www.w3.org/2000/svg" width="20.256" height="16.451" viewBox="0 0 20.256 16.451"><path d="M18.174,52.182c.013.18.013.36.013.54A11.731,11.731,0,0,1,6.375,64.533,11.731,11.731,0,0,1,0,62.67a8.589,8.589,0,0,0,1,.051,8.314,8.314,0,0,0,5.154-1.774,4.159,4.159,0,0,1-3.882-2.879,5.235,5.235,0,0,0,.784.064,4.391,4.391,0,0,0,1.092-.141A4.152,4.152,0,0,1,.823,53.917v-.051a4.181,4.181,0,0,0,1.876.527A4.158,4.158,0,0,1,1.414,48.84a11.8,11.8,0,0,0,8.56,4.344,4.686,4.686,0,0,1-.1-.951,4.155,4.155,0,0,1,7.185-2.84,8.173,8.173,0,0,0,2.635-1,4.14,4.14,0,0,1-1.825,2.288,8.322,8.322,0,0,0,2.391-.643A8.924,8.924,0,0,1,18.174,52.182Z" transform="translate(0 -48.082)"/></svg>