<svg xmlns="http://www.w3.org/2000/svg" width="19.51" height="19.506" viewBox="0 0 19.51 19.506"><path d="M9.682,36.577a5,5,0,1,0,5,5A4.993,4.993,0,0,0,9.682,36.577Zm0,8.252a3.251,3.251,0,1,1,3.251-3.251,3.257,3.257,0,0,1-3.251,3.251Zm6.372-8.457a1.166,1.166,0,1,1-1.166-1.166A1.164,1.164,0,0,1,16.054,36.372Zm3.312,1.184a5.773,5.773,0,0,0-1.576-4.087A5.811,5.811,0,0,0,13.7,31.894c-1.61-.091-6.437-.091-8.048,0a5.8,5.8,0,0,0-4.087,1.571A5.792,5.792,0,0,0-.006,37.552c-.091,1.61-.091,6.437,0,8.048a5.773,5.773,0,0,0,1.576,4.087,5.818,5.818,0,0,0,4.087,1.576c1.61.091,6.437.091,8.048,0a5.773,5.773,0,0,0,4.087-1.576A5.811,5.811,0,0,0,19.367,45.6c.091-1.61.091-6.433,0-8.043Zm-2.081,9.771a3.292,3.292,0,0,1-1.854,1.854c-1.284.509-4.331.392-5.75.392s-4.47.113-5.75-.392a3.292,3.292,0,0,1-1.854-1.854c-.509-1.284-.392-4.331-.392-5.75s-.113-4.47.392-5.75a3.292,3.292,0,0,1,1.854-1.854c1.284-.509,4.331-.392,5.75-.392s4.47-.113,5.75.392a3.292,3.292,0,0,1,1.854,1.854c.509,1.284.392,4.331.392,5.75S17.8,46.048,17.286,47.328Z" transform="translate(0.075 -31.825)"/></svg>