<svg xmlns="http://www.w3.org/2000/svg" width="220" height="53.675" viewBox="0 0 220 53.675"><defs><style>.a{fill:#fff;}</style></defs><g transform="translate(-0.013)"><path class="a" d="M135.072,32.224h-.465a1.9,1.9,0,0,1-1.706-1.241,17.109,17.109,0,0,0-2.637-3.723c-.31-.31,0-.31,0-.31,3.413-.776,3.258-3.1,3.258-3.1,0-2.947-3.723-2.947-3.723-2.947H121.11a.334.334,0,0,0-.31.31v.465a.334.334,0,0,0,.31.31l.776.155a.667.667,0,0,1,.621.621v8.687a1.031,1.031,0,0,1-.621.776l-.776.155a.334.334,0,0,0-.31.31v.465c0,.155.155.155.31.155h5.74a.542.542,0,0,0,.31-.155V32.69a.334.334,0,0,0-.31-.31l-.776-.155a.71.71,0,0,1-.621-.776V27.881a.411.411,0,0,1,.465-.465h.776a2.782,2.782,0,0,1,2.172,1.551s.621,1.241,1.4,2.637,1.241,1.706,3.413,1.706h1.4a.152.152,0,0,0,.155-.155v-.621C135.382,32.38,135.227,32.224,135.072,32.224Zm-6.826-5.895h-2.327a.411.411,0,0,1-.465-.465V22.3a.411.411,0,0,1,.465-.465h2.327s2.327,0,2.327,2.172C130.728,26.33,128.246,26.33,128.246,26.33Z" transform="translate(66.589 11.522)"/><path class="a" d="M119.856,22.3a.411.411,0,0,1,.465-.465h1.4a2.771,2.771,0,0,1,1.551.931l.465.621c0,.155.155.155.31.155h.621a.542.542,0,0,0,.31-.155v-.155l-.776-1.862a.853.853,0,0,0-.776-.465h-9.773a.853.853,0,0,0-.776.465l-.776,1.862v.155c0,.155.155.155.31.155h.621c.155,0,.155-.155.31-.155l.465-.621a2.771,2.771,0,0,1,1.551-.931h1.4a.411.411,0,0,1,.465.465v9a1.031,1.031,0,0,1-.621.776l-.776.155a.334.334,0,0,0-.31.31V33a.334.334,0,0,0,.31.31h5.74a.334.334,0,0,0,.31-.31v-.465a.334.334,0,0,0-.31-.31l-.776-.155a.71.71,0,0,1-.621-.776v-9Z" transform="translate(61.793 11.522)"/><path class="a" d="M111.1,22.817a1.031,1.031,0,0,1,.621-.776l.776-.155a.334.334,0,0,0,.31-.31V21.11a.334.334,0,0,0-.31-.31h-5.74c-.155,0-.155.155-.155.31v.465a.334.334,0,0,0,.31.31l.776.155a.71.71,0,0,1,.621.776V31.5a1.031,1.031,0,0,1-.621.776l-.776.155a.334.334,0,0,0-.31.31v.465a.152.152,0,0,0,.155.155h8.687a.853.853,0,0,0,.776-.465l.776-1.862v-.155c0-.155-.155-.155-.31-.155h-.465c-.155,0-.155.155-.31.155l-.465.621a2.147,2.147,0,0,1-1.551.776h-2.327a.411.411,0,0,1-.465-.465Z" transform="translate(58.761 11.467)"/><path class="a" d="M101.744,28.246s-.31,3.878,3.1,3.878c3.1,0,3.1-3.413,3.1-3.413V22.817a.853.853,0,0,0-.465-.776l-.621-.155a.334.334,0,0,1-.31-.31V21.11a.334.334,0,0,1,.31-.31h3.568a.334.334,0,0,1,.31.31v.465a.334.334,0,0,1-.31.31l-.621.155c-.31,0-.465.31-.465.776v5.43c0,.621,0,4.964-4.809,4.964-5.74,0-5.43-4.964-5.43-4.964V22.662a1.031,1.031,0,0,0-.621-.776l-.776-.155a.334.334,0,0,1-.31-.31v-.31a.334.334,0,0,1,.31-.31h5.43a.334.334,0,0,1,.31.31v.621a.334.334,0,0,1-.31.31l-.621.155c-.31,0-.465.31-.465.776v5.274Z" transform="translate(53.689 11.467)"/><path class="a" d="M97.453,21.421A5.312,5.312,0,0,0,94.66,20.8a6.389,6.389,0,0,0-6.36,6.36,6.291,6.291,0,0,0,6.36,6.36,6.389,6.389,0,0,0,6.36-6.36A6.055,6.055,0,0,0,97.453,21.421ZM94.815,32.28c-2.172,0-3.1-2.017-3.1-5.274-.155-3.413.621-5.43,2.792-5.43s3.1,1.862,3.1,5.274C97.918,30.263,97.142,32.28,94.815,32.28Z" transform="translate(48.672 11.467)"/><path class="a" d="M91.727,31.272a6.494,6.494,0,0,1-5.274,2.947c-3.413.155-4.654-3.413-4.809-7.756s.931-7.912,4.188-8.067a5.577,5.577,0,0,1,5.274,2.792c0,.155.155.155.31.155h.155l.776-.155a.152.152,0,0,0,.155-.155v-.155l-1.086-3.413c0-.155-.155-.155-.31-.155h-.465a.542.542,0,0,0-.31.155c-.155,1.086-1.086.465-1.086.465A7.206,7.206,0,0,0,85.677,17c-4.654,0-8.377,4.188-8.377,9.153,0,5.119,3.723,9.153,8.377,9.153a6.663,6.663,0,0,0,3.878-1.086s.931-.621,1.086.465c0,.155.155.155.31.155h.465a.542.542,0,0,0,.31-.155l1.086-3.413v-.155c0-.155,0-.155-.155-.155h-.776C91.727,30.962,91.727,31.117,91.727,31.272Z" transform="translate(42.608 9.372)"/><path class="a" d="M72.658,20.8h6.205a1.319,1.319,0,0,1,.776.465l.621,1.706v.155a.152.152,0,0,1-.155.155h-.621c-.155,0-.155-.155-.31-.155l-.31-.465a1.443,1.443,0,0,0-1.4-.776H74.209a.411.411,0,0,0-.465.465v2.017a.411.411,0,0,0,.465.465h.776a.938.938,0,0,0,.931-.465l.155-.465c0-.155.155-.155.31-.155h.465a.542.542,0,0,1,.31.155l1.086,3.258v.155c0,.155,0,.155-.155.155l-.465.155h-.155c-.155,0-.155-.155-.31-.155l-.31-.621a1.232,1.232,0,0,0-1.086-.621h-1.4a.411.411,0,0,0-.465.465v5.274a.411.411,0,0,0,.465.465h3.568a2.147,2.147,0,0,0,1.551-.776l.465-.621c0-.155.155-.155.31-.155h.621a.152.152,0,0,1,.155.155v.155l-.776,1.862a.853.853,0,0,1-.776.465H69.71a.542.542,0,0,1-.31-.155V32.9a.334.334,0,0,1,.31-.31l.776-.155a.71.71,0,0,0,.621-.776V22.972a1.031,1.031,0,0,0-.621-.776l-.776-.155a.334.334,0,0,1-.31-.31V21.11a.334.334,0,0,1,.31-.31Z" transform="translate(38.253 11.467)"/><path class="a" d="M66.7,22.817a1.031,1.031,0,0,1,.621-.776l.776-.155a.334.334,0,0,0,.31-.31V21.11a.334.334,0,0,0-.31-.31h-5.74c-.155,0-.155.155-.155.31v.465a.334.334,0,0,0,.31.31l.776.155a.71.71,0,0,1,.621.776V31.5a1.031,1.031,0,0,1-.621.776l-.776.155a.334.334,0,0,0-.31.31v.621a.152.152,0,0,0,.155.155h8.687a.853.853,0,0,0,.776-.465l.776-1.862v-.155c0-.155-.155-.155-.31-.155h-.621c-.155,0-.155.155-.31.155l-.465.621a2.147,2.147,0,0,1-1.551.776H66.854a.411.411,0,0,1-.465-.465V22.817h.31Z" transform="translate(34.283 11.467)"/><path class="a" d="M62.995,24.255c0-.155-.155-.155,0,0L57.41,24.1a.542.542,0,0,0-.31.155v1.4c0,.155.155.155.31.155h5.43a.152.152,0,0,0,.155-.155Z" transform="translate(31.472 13.286)"/><path class="a" d="M61.472,32.224h-.465A1.9,1.9,0,0,1,59.3,30.983a17.11,17.11,0,0,0-2.637-3.723c-.31-.31,0-.31,0-.31,3.413-.776,3.258-3.1,3.258-3.1C59.921,20.9,56.2,20.9,56.2,20.9H47.51a.334.334,0,0,0-.31.31v.621a.334.334,0,0,0,.31.31l.776.155a.667.667,0,0,1,.621.621V31.6a1.031,1.031,0,0,1-.621.776l-.776.155a.334.334,0,0,0-.31.31v.621c0,.155.155.155.31.155h5.74a.542.542,0,0,0,.31-.155v-.621a.334.334,0,0,0-.31-.31l-.776-.155a.71.71,0,0,1-.621-.776V28.036a.411.411,0,0,1,.465-.465h.776a2.782,2.782,0,0,1,2.172,1.551s.621,1.241,1.4,2.637,1.241,1.706,3.413,1.706h1.4a.152.152,0,0,0,.155-.155V32.69C61.627,32.38,61.627,32.224,61.472,32.224ZM54.646,26.33H52.319a.411.411,0,0,1-.465-.465V22.3a.411.411,0,0,1,.465-.465h2.327s2.327,0,2.327,2.172S54.646,26.33,54.646,26.33Z" transform="translate(26.014 11.522)"/><path class="a" d="M42.313,20.8h6.205a1.319,1.319,0,0,1,.776.465l.621,1.706v.155a.152.152,0,0,1-.155.155h-.621c-.155,0-.155-.155-.31-.155l-.31-.465a1.443,1.443,0,0,0-1.4-.776H43.864a.411.411,0,0,0-.465.465v2.017a.411.411,0,0,0,.465.465h.776a.938.938,0,0,0,.931-.465l.155-.465c0-.155.155-.155.31-.155H46.5a.542.542,0,0,1,.31.155L47.9,27.16v.155c0,.155,0,.155-.155.155l-.621-.155h-.155c-.155,0-.155-.155-.31-.155l-.31-.621a1.232,1.232,0,0,0-1.086-.621h-1.4a.411.411,0,0,0-.465.465v5.274a.411.411,0,0,0,.465.465h3.568a2.147,2.147,0,0,0,1.551-.776l.465-.621c0-.155.155-.155.31-.155h.621a.542.542,0,0,1,.31.155v.155L49.6,32.9a.853.853,0,0,1-.776.465H39.055a.152.152,0,0,1-.155-.155v-.465a.334.334,0,0,1,.31-.31l.776-.155a.71.71,0,0,0,.621-.776V22.817a1.031,1.031,0,0,0-.621-.776l-.776-.155a.334.334,0,0,1-.31-.31V21.11a.542.542,0,0,1,.155-.31Z" transform="translate(21.438 11.467)"/><path class="a" d="M38.687,29.542a1.031,1.031,0,0,0-.621-.776h-.621a.334.334,0,0,1-.31-.31v-.31c0-.155.155-.155.31-.155h5.274a.542.542,0,0,1,.31.155v.31a.334.334,0,0,1-.31.31h-.31a.71.71,0,0,0-.621.776v1.706c0,.31-.155.465-.465.621-2.947,1.862-4.964,1.551-4.964,1.551A6.389,6.389,0,0,1,30,27.06a6.291,6.291,0,0,1,6.36-6.36,6.084,6.084,0,0,1,2.792.621s.465.31.776-.31c0-.155.155-.155.31-.155h.31a.542.542,0,0,1,.31.155l.776,2.792v.155a.152.152,0,0,1-.155.155l-1.086.155h-.155c-.155,0-.155-.155-.31-.155l-.155-.31a3.977,3.977,0,0,0-3.878-2.172c-2.172,0-2.947,2.172-2.947,5.43.155,3.258.931,5.43,3.1,5.274a3.116,3.116,0,0,0,2.172-.931.48.48,0,0,0,.155-.31V29.542h.31Z" transform="translate(16.532 11.412)"/><path class="a" d="M22.055,33.365c-.155,0-.155-.155,0,0l-.155-.621a.334.334,0,0,1,.31-.31l.776-.155a.71.71,0,0,0,.621-.776V22.817a1.031,1.031,0,0,0-.621-.776l-.776-.155a.334.334,0,0,1-.31-.31V21.11a.542.542,0,0,1,.155-.31h9.463a1.319,1.319,0,0,1,.776.465l.621,1.706v.155a.152.152,0,0,1-.155.155h-.621c-.155,0-.155-.155-.31-.155l-.31-.465a1.443,1.443,0,0,0-1.4-.776H26.864a.411.411,0,0,0-.465.465v1.862a.411.411,0,0,0,.465.465h.776a.938.938,0,0,0,.931-.465l.155-.465c0-.155.155-.155.31-.155H29.5a.542.542,0,0,1,.31.155L30.9,27.005v.155c0,.155,0,.155-.155.155h-.776c-.155,0-.155-.155-.31-.155l-.31-.621a1.232,1.232,0,0,0-1.086-.621h-1.4a.411.411,0,0,0-.465.465v5.274a.411.411,0,0,0,.465.465h3.568a2.147,2.147,0,0,0,1.551-.776l.465-.621c0-.155.155-.155.31-.155h.621a.152.152,0,0,1,.155.155v.155L32.6,32.9a.853.853,0,0,1-.776.465Z" transform="translate(12.066 11.467)"/><path class="a" d="M26.117,32.28h0a2.166,2.166,0,0,1-1.086-1.241l-3.413-9.773a.774.774,0,0,0-.776-.465H18.36a.774.774,0,0,0-.776.465l-3.723,9.773c-.465,1.086-1.241,1.086-1.241,1.086h-.31a.334.334,0,0,0-.31.31v.621a.152.152,0,0,0,.155.155h3.878a.542.542,0,0,0,.31-.155v-.621a.334.334,0,0,0-.31-.31h-.155a.71.71,0,0,1-.621-.776v-.31l.31-.776a.672.672,0,0,1,.621-.31h4.654a.672.672,0,0,1,.621.31l.31.776v.31a1.031,1.031,0,0,1-.621.776H21a.334.334,0,0,0-.31.31v.621c0,.155.155.155.31.155h4.964a.542.542,0,0,0,.31-.155v-.621Zm-5.585-3.258H16.654c-.465,0-.31-.31-.31-.31l2.017-5.119s.155-.465.31-.465.31.465.31.465l1.706,5.119C20.842,28.712,21,29.022,20.532,29.022Z" transform="translate(6.609 11.467)"/><path class="a" d="M5.112,34.209c-1.4-.776-1.551-1.551-1.241-2.017s.931-.776,2.327,0A9.9,9.9,0,0,1,9.146,34.83,6.755,6.755,0,0,1,5.112,34.209Zm205.081,1.086c3.258,0,5.274-.155,7.136-1.4,2.327-1.4,3.258-3.723,2.327-5.119-.776-1.4-2.947-1.551-5.119-.155,0,0-2.482,1.4-5.274,5.585H207.4a.411.411,0,0,1-.465-.465V28.469A.411.411,0,0,1,207.4,28h1.4a1.232,1.232,0,0,1,1.086.621l.31.621c0,.155.155.155.31.155h.155l.465-.155a.152.152,0,0,0,.155-.155v-.155l-1.086-3.258c0-.155-.155-.155-.31-.155h-.465a.542.542,0,0,0-.31.155l-.155.465c-.155.31-.31.465-.931.465h-.776a.411.411,0,0,1-.465-.465V24.126a.411.411,0,0,1,.465-.465H210.5a1.736,1.736,0,0,1,1.4.776l.31.465c0,.155.155.155.31.155h.62a.152.152,0,0,0,.155-.155v-.155l-.621-1.706a.853.853,0,0,0-.776-.465h-9.463a.334.334,0,0,0-.31.31v.621a.334.334,0,0,0,.31.31l.776.155a.71.71,0,0,1,.62.776v8.687a1.031,1.031,0,0,1-.62.776l-.776.155a.334.334,0,0,0-.31.31v.465c0,.155.155.155.31.155h5.74c-2.792,3.723-5.585,5.895-9.928,6.205H20.625c-4.344-.31-6.205-1.706-8.842-5.43h0c5.895-1.241,6.36-5.74,6.671-8.842a42.753,42.753,0,0,0,.155-5.895V19.627a.71.71,0,0,1,.621-.776L20,18.7a.334.334,0,0,0,.31-.31V17.61A.334.334,0,0,0,20,17.3H13.024a.334.334,0,0,0-.31.31v.776a.334.334,0,0,0,.31.31l.776.155a.71.71,0,0,1,.621.776v7.756c0,1.241.155,4.5-1.706,6.05a4.136,4.136,0,0,1-2.172,1.086h0C7.75,30.641,5.423,29.4,5.423,29.4,3.251,28,1.079,28.159.3,29.555s0,3.568,2.327,5.119a12.42,12.42,0,0,0,7.136,1.551h0s1.862,2.637,2.637,3.723,2.482,4.188,9.928,4.188H195.766c7.6,0,10.394-3.878,11.169-4.964A38.791,38.791,0,0,0,210.193,35.295Zm.931-1.241a11.432,11.432,0,0,1,2.792-2.637c1.4-.776,2.017-.465,2.327,0s0,1.4-1.4,2.017A8.167,8.167,0,0,1,211.124,34.054Z" transform="translate(0 9.537)"/><path class="a" d="M97.719,16.444a43.55,43.55,0,0,1-13.341,3.568V5.119h5.585L86.55,0H80.5L79.1,2.017,77.708,0h-6.05L68.245,5.119H73.83V20.012a43.55,43.55,0,0,1-13.341-3.568L56.3,22.494c1.862.776,3.723,1.551,5.585,2.172l1.551-2.327a49.193,49.193,0,0,0,15.048,2.327H79.1a46.463,46.463,0,0,0,15.513-2.482l1.551,2.327c1.862-.621,3.723-1.4,5.585-2.172ZM78.639,23.735A46.529,46.529,0,0,1,63.126,21.1l-1.551,2.327c-1.241-.465-2.327-.931-3.568-1.4l2.947-4.188a47.056,47.056,0,0,0,14.117,3.413V4.033H70.417l2.017-2.947h4.809l1.4,2.017Zm16.6-2.637a47.214,47.214,0,0,1-15.513,2.637V3.1l1.4-2.017h4.964L88.1,4.033H83.448V21.253A48.22,48.22,0,0,0,97.564,17.84l2.947,4.188c-1.086.465-2.327.931-3.568,1.4Z" transform="translate(31.031)"/></g></svg>