<svg xmlns="http://www.w3.org/2000/svg" width="72.101" height="39.126" viewBox="0 0 72.101 39.126"><path d="M122,26.084a69.083,69.083,0,0,1-21.163,5.66V8.121H109.7L104.285,0h-9.6L92.473,3.2,90.259,0h-9.6L75.248,8.121h8.859V31.744a69.083,69.083,0,0,1-21.163-5.66l-6.644,9.6c2.953,1.23,5.906,2.461,8.859,3.445l2.461-3.691a78.033,78.033,0,0,0,23.87,3.691h.984a73.7,73.7,0,0,0,24.608-3.937l2.461,3.691c2.953-.984,5.906-2.215,8.859-3.445ZM91.735,37.65a73.808,73.808,0,0,1-24.608-4.183l-2.461,3.691c-1.969-.738-3.691-1.476-5.66-2.215L63.682,28.3a74.644,74.644,0,0,0,22.393,5.414V6.4H78.693l3.2-4.675h7.628l2.215,3.2Zm26.33-4.183A74.9,74.9,0,0,1,93.458,37.65V4.922l2.215-3.2h7.874l3.2,4.675H99.364V33.713A76.49,76.49,0,0,0,121.757,28.3l4.675,6.644c-1.723.738-3.691,1.476-5.66,2.215Z" transform="translate(-56.3)" fill="#fff"/></svg>